<?xml version="1.0" encoding="UTF-8"?>
<svg width="81px" height="80px" viewBox="0 0 81 80" version="1.1" xmlns="http://www.w3.org/2000/svg" xmlns:xlink="http://www.w3.org/1999/xlink">
    <title>编组</title>
    <g id="第四版20200911" stroke="none" stroke-width="1" fill="none" fill-rule="evenodd">
        <g id="创建任务（特殊任务）" transform="translate(-609.000000, -1166.000000)" fill="#0A9B58" fill-rule="nonzero">
            <g id="编组-6" transform="translate(30.000000, 1051.000000)">
                <g id="编组" transform="translate(580.000000, 115.000000)">
                    <g transform="translate(-0.000000, 0.000000)">
                        <path d="M40,80 C17.90861,80 0,62.09139 0,40 C0,17.90861 17.90861,0 40,0 C62.09139,0 80,17.90861 80,40 C79.9745172,62.0808261 62.0808261,79.9745172 40,80 Z M40,3 C19.5654643,3 3,19.5654643 3,40 C3,60.4345357 19.5654643,77 40,77 C60.4345357,77 77,60.4345357 77,40 C76.976953,19.5750183 60.4249817,3.02304702 40,3 Z" id="形状"></path>
                        <path d="M43.6282912,38.1584049 L43.6282912,27.4781492 C43.6282912,26.0090898 42.4373974,24.8181818 40.9683555,24.8181818 C39.4993136,24.8181818 38.3084198,26.0090898 38.3084198,27.4781492 L38.3084198,38.1584049 L27.6282912,38.1584049 C26.1716657,38.1758385 25,39.3616251 25,40.8183723 C25,42.2751195 26.1716657,43.4609061 27.6282912,43.4783397 L38.3084198,43.4783397 L38.3084198,54.1582144 C38.3084198,55.6272739 39.4993136,56.8181818 40.9683555,56.8181818 C42.4373974,56.8181818 43.6282912,55.6272739 43.6282912,54.1582144 L43.6282912,43.4783397 L54.3080388,43.4783397 C55.2659284,43.4898042 56.1560016,42.9853395 56.6382864,42.1576309 C57.1205712,41.3299223 57.1205712,40.3068223 56.6382864,39.4791137 C56.1560016,38.6514051 55.2659284,38.1469405 54.3080388,38.1584049 L43.6282912,38.1584049 Z" id="路径"></path>
                    </g>
                </g>
            </g>
        </g>
    </g>
</svg>