<?xml version="1.0" encoding="UTF-8"?>
<svg width="40px" height="40px" viewBox="0 0 40 40" version="1.1" xmlns="http://www.w3.org/2000/svg" xmlns:xlink="http://www.w3.org/1999/xlink">
    <title>编组</title>
    <g id="第四版20200911" stroke="none" stroke-width="1" fill="none" fill-rule="evenodd">
        <g id="创建任务（巡店任务）备份-6" transform="translate(-666.000000, -610.000000)" fill="#0A9B58" fill-rule="nonzero">
            <g id="编组" transform="translate(666.000000, 610.000000)">
                <path d="M20,40 C8.954305,40 0,31.045695 0,20 C0,8.954305 8.954305,0 20,0 C31.045695,0 40,8.954305 40,20 C39.9872586,31.040413 31.040413,39.9872586 20,40 Z M20,3.22589595 C10.7359181,3.22589595 3.22589595,10.7359181 3.22589595,20 C3.22589595,29.2640819 10.7359181,36.774104 20,36.774104 C29.2640819,36.774104 36.774104,29.2640819 36.774104,20 C36.7636556,10.7402495 29.2597505,3.23634442 20,3.22589595 Z" id="形状"></path>
                <path d="M28.401648,18.8298484 L22.0605479,18.8298484 L22.0605479,12.4884465 C22.0605479,11.6161925 21.3534547,10.9090909 20.4812111,10.9090909 C19.6089674,10.9090909 18.9018743,11.6161925 18.9018743,12.4884465 L18.9018743,18.8298484 L12.5605479,18.8298484 C11.6956765,18.8401996 11,19.5442604 11,20.409204 C11,21.2741477 11.6956765,21.9782085 12.5605479,21.9885596 L18.9018743,21.9885596 L18.9018743,28.3297353 C18.9018743,29.2019893 19.6089674,29.9090909 20.4812111,29.9090909 C21.3534547,29.9090909 22.0605479,29.2019893 22.0605479,28.3297353 L22.0605479,21.9885596 L28.401648,21.9885596 C28.970395,21.9953667 29.4988759,21.6958408 29.7852325,21.2043888 C30.0715892,20.7129368 30.0715892,20.1054712 29.7852325,19.6140192 C29.4988759,19.1225672 28.970395,18.8230414 28.401648,18.8298484 L28.401648,18.8298484 Z" id="路径"></path>
            </g>
        </g>
    </g>
</svg>