<?xml version="1.0" encoding="UTF-8"?>
<svg width="38px" height="38px" viewBox="0 0 38 38" version="1.1" xmlns="http://www.w3.org/2000/svg" xmlns:xlink="http://www.w3.org/1999/xlink">
    <title>编组 11备份 3</title>
    <g id="第四版20200911" stroke="none" stroke-width="1" fill="none" fill-rule="evenodd">
        <g id="任务管理备份-10" transform="translate(-655.000000, -2561.000000)" fill-rule="nonzero">
            <g id="编组-16" transform="translate(655.000000, 2561.000000)">
                <g id="编组-11备份-3" transform="translate(19.000000, 19.000000) rotate(-180.000000) translate(-19.000000, -19.000000) translate(0.000000, 0.000000)">
                    <g id="编组" fill="#69C299">
                        <path d="M0,19 C0,29.4934102 8.50658975,38 19,38 C29.4934102,38 38,29.4934102 38,19 C38,8.50658975 29.4934102,0 19,0 C8.50658975,0 0,8.50658975 0,19 Z" id="路径"></path>
                    </g>
                    <g id="编组" transform="translate(9.000000, 13.000000)" fill="#FFFFFF">
                        <path d="M10.1257128,12 C9.12001044,12 8.24002088,11.6024138 7.48574409,10.8072413 L0.320114795,2.32540201 C-0.182736395,1.79528704 -0.0570235974,1.0001146 0.44582757,0.469999634 C0.94867876,-0.0601153365 1.70295552,0.072413406 2.20580671,0.602528376 L9.49714881,9.08436773 C9.6228616,9.21689648 9.8742872,9.34942522 10.1257128,9.34942522 C10.3771384,9.34942522 10.628564,9.21689648 10.8799896,8.95183899 L17.7941933,0.469999634 C18.2970445,-0.0601153365 19.0513212,-0.192644056 19.5541724,0.337470891 C20.0570236,0.867585861 20.1827364,1.66275829 19.6798852,2.19287326 L12.7656815,10.6747126 C12.1371175,11.6024138 11.2571279,12 10.1257128,12 C10.2514256,12 10.1257128,12 10.1257128,12 Z" id="路径" transform="translate(10.000000, 6.000000) rotate(-180.000000) translate(-10.000000, -6.000000) "></path>
                    </g>
                </g>
            </g>
        </g>
    </g>
</svg>