<?xml version="1.0" encoding="UTF-8"?>
<svg width="42px" height="42px" viewBox="0 0 42 42" version="1.1" xmlns="http://www.w3.org/2000/svg" xmlns:xlink="http://www.w3.org/1999/xlink">
    <title>编组</title>
    <g id="第四版20200911" stroke="none" stroke-width="1" fill="none" fill-rule="evenodd">
        <g id="任务管理备份-4" transform="translate(-675.000000, -207.000000)">
            <g id="编组" transform="translate(675.000000, 207.000000)">
                <path d="M21.6739804,41.5077022 L16.2616617,38.492241 C14.963558,37.8327476 14.1295355,36.427858 14.1156945,34.8774142 L14.1156945,17.7131978 C14.1051911,17.4521588 13.9831264,17.2111996 13.7853247,17.0610383 L1.27436494,7.03641549 L1.13934426,6.87492838 C-0.00305211461,5.75264178 -0.324718176,3.95078835 0.349329577,2.44956047 C1.04301005,0.904326064 2.51320276,-0.0546093443 4.10118111,0.00240966341 L37.8620994,0.00240966341 C39.4497396,-0.0265535558 40.9150873,0.920755266 41.6426788,2.44645493 C42.3156876,3.93770222 42.0194976,5.72823297 40.9101197,6.87492838 L40.7463713,7.03641549 L28.0774085,17.1697315 C27.8972595,17.3292481 27.7920022,17.5670582 27.7901305,17.8187855 L27.7901305,37.8680312 C27.7627242,39.008346 27.3116515,40.0886796 26.5387079,40.8652284 C25.7657644,41.6417772 24.7360894,42.0490981 23.6820541,41.9952691 C22.9934834,42.0006578 22.3130928,41.8337856 21.6940899,41.5077022 L21.6739804,41.5077022 Z M3.42320487,4.58926468 L15.8795818,14.5269329 C16.8398616,15.2666911 17.4161338,16.4572357 17.4308834,17.7318309 L17.4308834,34.8960473 C17.4200017,35.2070734 17.5799863,35.4957226 17.8388182,35.6320559 L23.251137,38.5916177 C23.5184898,38.7282207 23.8283817,38.7282207 24.0957345,38.5916177 C24.3429761,38.4455168 24.4978943,38.1664018 24.5007966,37.8618202 L24.5007966,17.8436297 C24.506776,16.572466 25.0734846,15.3806818 26.0262431,14.6356262 L38.5113479,4.58926468 C38.7002434,4.34476058 38.7331901,4.00088229 38.5946585,3.71971869 C38.4472963,3.43057756 38.1645804,3.25269695 37.8592267,3.25699601 L4.10405391,3.25699601 C3.79572198,3.23995571 3.50720688,3.42148507 3.36862203,3.71971869 C3.21959269,3.99410232 3.24125254,4.33916009 3.42320487,4.58926468 Z M40.4418565,21.6478987 L31.5620915,21.6478987 C31.0242294,21.6479857 30.5271878,21.3378455 30.2582321,20.8343213 C29.9892764,20.3307972 29.9892764,19.7104031 30.2582321,19.206879 C30.5271878,18.7033548 31.0242294,18.3932146 31.5620915,18.393307 L40.4303654,18.393307 C41.2759254,18.3794461 41.9729951,19.1066224 41.9902853,20.0206001 C42.0034957,20.4510698 41.845597,20.8670586 41.5564954,21.163432 C41.2527408,21.4754996 40.8494142,21.6490107 40.4303654,21.6478987 L40.4418565,21.6478987 Z M40.4418565,27.9086243 L31.5620915,27.9086243 C30.7291302,27.9086243 30.0538816,27.17867 30.0538816,26.2782256 C30.0538816,25.3777813 30.7291302,24.6478269 31.5620915,24.6478269 L40.4303654,24.6478269 C41.2768705,24.637411 41.972999,25.3663772 41.9902853,26.2813311 C42.0024803,26.7125109 41.8448108,27.1290246 41.5564954,27.4272685 C41.2510205,27.7360396 40.8485751,27.9080618 40.4303654,27.9086243 L40.4418565,27.9086243 Z M40.4418565,34.1693553 L31.5620915,34.1693553 C30.7291302,34.1693553 30.0538816,33.439401 30.0538816,32.5389566 C30.0538816,31.6385123 30.7291302,30.9085579 31.5620915,30.9085579 L40.4303654,30.9085579 C41.274681,30.8980932 41.9698997,31.6233386 41.9902853,32.5358511 C42.0012795,32.9665067 41.8425463,33.3819426 41.5536226,33.6786829 C41.2498871,33.9895925 40.8486438,34.1648676 40.4303654,34.1693553 L40.4418565,34.1693553 Z" id="形状" fill="#0A9B58" fill-rule="nonzero"></path>
                <path d="M40.4418565,21.6478987 L31.5620915,21.6478987 C31.0242294,21.6479857 30.5271878,21.3378455 30.2582321,20.8343213 C29.9892764,20.3307972 29.9892764,19.7104031 30.2582321,19.206879 C30.5271878,18.7033548 31.0242294,18.3932146 31.5620915,18.393307 L40.4303654,18.393307 C41.2759254,18.3794461 41.9729951,19.1066224 41.9902853,20.0206001 C42.0034957,20.4510698 41.845597,20.8670586 41.5564954,21.163432 C41.2527408,21.4754996 40.8494142,21.6490107 40.4303654,21.6478987 L40.4418565,21.6478987 Z" id="路径" fill="#F7B500"></path>
                <path d="M40.4418565,27.9086243 L31.5620915,27.9086243 C30.7291302,27.9086243 30.0538816,27.17867 30.0538816,26.2782256 C30.0538816,25.3777813 30.7291302,24.6478269 31.5620915,24.6478269 L40.4303654,24.6478269 C41.2768705,24.637411 41.972999,25.3663772 41.9902853,26.2813311 C42.0024803,26.7125109 41.8448108,27.1290246 41.5564954,27.4272685 C41.2510205,27.7360396 40.8485751,27.9080618 40.4303654,27.9086243 L40.4418565,27.9086243 Z" id="路径" fill="#F7B500"></path>
                <path d="M40.4418565,34.1693553 L31.5620915,34.1693553 C30.7291302,34.1693553 30.0538816,33.439401 30.0538816,32.5389566 C30.0538816,31.6385123 30.7291302,30.9085579 31.5620915,30.9085579 L40.4303654,30.9085579 C41.274681,30.8980932 41.9698997,31.6233386 41.9902853,32.5358511 C42.0012795,32.9665067 41.8425463,33.3819426 41.5536226,33.6786829 C41.2498871,33.9895925 40.8486438,34.1648676 40.4303654,34.1693553 L40.4418565,34.1693553 Z" id="路径" fill="#F7B500"></path>
            </g>
        </g>
    </g>
</svg>