<?xml version="1.0" encoding="UTF-8"?>
<svg width="36px" height="36px" viewBox="0 0 36 36" version="1.1" xmlns="http://www.w3.org/2000/svg" xmlns:xlink="http://www.w3.org/1999/xlink">
    <g id="移动端（开发管家）" stroke="none" stroke-width="1" fill="none" fill-rule="evenodd">
        <g id="开发切图" transform="translate(-49.000000, -97.000000)">
            <g id="编组-4" transform="translate(49.000000, 97.000000)">
                <g id="分组-6备份" fill="#FFFFFF" stroke="#DDDEE1">
                    <rect id="矩形-copy-10" x="0.5" y="0.5" width="35" height="35" rx="2"></rect>
                </g>
                <g id="足迹" transform="translate(10.000000, 10.000000)" fill-rule="nonzero">
                    <rect id="矩形" fill="#000000" opacity="0" x="0" y="0" width="16" height="16"></rect>
                    <path d="M1.54816634,1.89962406 C1.54816634,2.57635788 1.90919952,3.20168573 2.4952682,3.54005264 C3.08133687,3.87841956 3.80340327,3.87841956 4.38947195,3.54005264 C4.97554062,3.20168573 5.3365738,2.57635788 5.3365738,1.89962406 C5.3365738,1.22289024 4.97554062,0.597562397 4.38947195,0.259195482 C3.80340327,-0.0791714327 3.08133687,-0.0791714327 2.4952682,0.259195482 C1.90919952,0.597562397 1.54816634,1.22289024 1.54816634,1.89962406 Z M6.12183341,1.16495416 C6.12183341,1.79179209 6.62998595,2.29994463 7.25682388,2.29994463 C7.88366181,2.29994463 8.39181436,1.79179209 8.39181436,1.16495416 C8.39181436,0.538116225 7.88366181,0.0299636797 7.25682388,0.0299636797 C6.62998595,0.0299636797 6.12183341,0.538116225 6.12183341,1.16495416 L6.12183341,1.16495416 Z M9.3149005,1.8300872 C9.3149005,2.45692513 9.82305305,2.96507768 10.449891,2.96507768 C11.0767289,2.96507768 11.5848815,2.45692513 11.5848815,1.8300872 C11.5848815,1.20324927 11.0767289,0.695096727 10.449891,0.695096727 C9.82305305,0.695096727 9.3149005,1.20324927 9.3149005,1.8300872 Z M12.1818367,3.42753214 C12.1818367,4.05437007 12.6899893,4.56252262 13.3168272,4.56252262 C13.9436651,4.56252262 14.4518177,4.05437007 14.4518177,3.42753214 C14.4518177,2.80069421 13.9436651,2.29254166 13.3168272,2.29254166 C12.6899893,2.29254166 12.1818367,2.80069421 12.1818367,3.42753214 L12.1818367,3.42753214 Z M6.10090359,3.80729066 C6.10090359,3.80729066 4.66763534,3.73796166 3.72008578,4.67721284 C2.77253622,5.61646403 2.75680289,6.41309192 3.26314758,7.23760489 C3.76949227,8.06211786 4.86415809,8.01475798 4.78398845,9.90035955 C4.70381881,11.7859771 3.93717059,11.8007031 3.82217656,12.9222467 C3.70718253,14.0437903 3.97162723,15.5594986 6.52648705,15.9465802 C9.08134686,16.3336618 11.6183468,14.3075155 12.1818527,12.4806581 C12.7453427,10.6538007 13.5158442,9.10884819 13.4241944,7.5063187 C13.3173548,5.6383212 12.415982,3.8277248 10.1723032,3.8175237 C7.92862439,3.80732261 6.10090359,3.80729066 6.10090359,3.80729066 Z" id="形状" fill="#19BE6B"></path>
                </g>
            </g>
        </g>
    </g>
</svg>
