<?xml version="1.0" standalone="no"?><!DOCTYPE svg PUBLIC "-//W3C//DTD SVG 1.1//EN" "http://www.w3.org/Graphics/SVG/1.1/DTD/svg11.dtd"><svg class="icon" width="200px" height="200.00px" viewBox="0 0 1024 1024" version="1.1" xmlns="http://www.w3.org/2000/svg"><path d="M14.222222 14.222222m56.888889 0l881.777778 0q56.888889 0 56.888889 56.888889l0 881.777778q0 56.888889-56.888889 56.888889l-881.777778 0q-56.888889 0-56.888889-56.888889l0-881.777778q0-56.888889 56.888889-56.888889Z" fill="#10AC64" /><path d="M328.476444 338.488889a53.873778 53.873778 0 1 0 107.776 0 53.873778 53.873778 0 0 0-107.776 0z m130.104889-20.906667a32.284444 32.284444 0 1 0 64.568889 0 32.284444 32.284444 0 0 0-64.568889 0z m90.823111 18.915556a32.284444 32.284444 0 1 0 64.568889 0 32.284444 32.284444 0 0 0-64.568889 0z m81.550223 45.454222a32.284444 32.284444 0 1 0 64.568889 0 32.284444 32.284444 0 0 0-64.568889 0z m-172.970667 10.808889s-40.760889-1.991111-67.697778 24.746667c-26.965333 26.680889-27.420444 49.351111-13.027555 72.817777 14.392889 23.438222 45.539556 22.101333 43.264 75.719111-2.275556 53.646222-24.092444 54.044444-27.363556 85.959112-3.271111 31.914667 4.266667 75.008 76.913778 86.044444 72.675556 11.008 144.839111-46.648889 160.881778-98.588444 16.014222-51.968 37.944889-95.914667 35.328-141.511112-3.043556-53.134222-28.672-104.618667-92.501334-104.903111-63.800889-0.284444-115.797333-0.284444-115.797333-0.284444z" fill="#f9f8f8" /></svg>