<?xml version="1.0" encoding="UTF-8"?>
<svg width="80px" height="50px" viewBox="0 0 80 50" version="1.1" xmlns="http://www.w3.org/2000/svg" xmlns:xlink="http://www.w3.org/1999/xlink">
    <title>编组 2</title>
    <g id="移动端（开发管家）" stroke="none" stroke-width="1" fill="none" fill-rule="evenodd">
        <g id="开发切图" transform="translate(-12.000000, -265.000000)">
            <g id="编组-2" transform="translate(12.000000, 265.000000)">
                <rect id="矩形" stroke="#DDDEE1" fill="#FFFFFF" x="0.5" y="0.5" width="79" height="49"></rect>
                <text id="计划路线" font-family="PingFangSC-Regular, PingFang SC" font-size="12" font-weight="normal" fill="#495060">
                    <tspan x="24" y="19">计划路线</tspan>
                </text>
                <g id="路线" transform="translate(4.000000, 7.000000)" fill-rule="nonzero">
                    <rect id="矩形" fill="#000000" opacity="0" x="0" y="0" width="16" height="16"></rect>
                    <path d="M12.7776667,6.22233333 C12.7776667,6.711 12.3776667,7.111 11.889,7.111 C11.809,7.111 11.7333333,7.10233333 11.6623333,7.08 L10.08,8.65766667 C10.1023333,8.729 10.111,8.809 10.111,8.889 C10.111,9.37766667 9.711,9.77766667 9.22233333,9.77766667 C8.73208962,9.77620328 8.33498057,9.37924313 8.33333333,8.889 C8.33333333,8.809 8.34233333,8.729 8.36433333,8.65766667 L7.231,7.52433333 C7.15598859,7.54621633 7.0781303,7.5567772 7,7.55566667 C6.92,7.55566667 6.84,7.54666667 6.769,7.52433333 L4.74666667,9.551 C4.769,9.62233333 4.77766667,9.69766667 4.77766667,9.77766667 C4.77766667,10.2666667 4.37766667,10.6666667 3.889,10.6666667 C3.3986267,10.6652023 3.00146436,10.26804 3,9.77766667 C3,9.289 3.4,8.889 3.889,8.889 C3.969,8.889 4.04433333,8.89766667 4.11566667,8.92 L6.14233333,6.89766667 C6.12045033,6.82265526 6.10988947,6.74479698 6.111,6.66666667 C6.111,6.17766667 6.511,5.77766667 7,5.77766667 C7.489,5.77766667 7.889,6.17766667 7.889,6.66666667 C7.889,6.74666667 7.88,6.82666667 7.85766667,6.89766667 L8.991,8.031 C9.06233333,8.009 9.14233333,8 9.22233333,8 C9.30233333,8 9.38233333,8.009 9.45333333,8.031 L11.031,6.449 C11.009218,6.37545665 10.9987648,6.29902461 11,6.22233333 C11,5.73333333 11.4,5.33333333 11.889,5.33333333 C12.3776667,5.33333333 12.7776667,5.73333333 12.7776667,6.22233333 Z" id="路径" fill="#FF9900"></path>
                </g>
                <g id="路线" transform="translate(4.000000, 29.000000)" fill-rule="nonzero">
                    <rect id="矩形" fill="#000000" opacity="0" x="0" y="0" width="16" height="16"></rect>
                    <path d="M12.7776667,6.22233333 C12.7776667,6.711 12.3776667,7.111 11.889,7.111 C11.809,7.111 11.7333333,7.10233333 11.6623333,7.08 L10.08,8.65766667 C10.1023333,8.729 10.111,8.809 10.111,8.889 C10.111,9.37766667 9.711,9.77766667 9.22233333,9.77766667 C8.73208962,9.77620328 8.33498057,9.37924313 8.33333333,8.889 C8.33333333,8.809 8.34233333,8.729 8.36433333,8.65766667 L7.231,7.52433333 C7.15598859,7.54621633 7.0781303,7.5567772 7,7.55566667 C6.92,7.55566667 6.84,7.54666667 6.769,7.52433333 L4.74666667,9.551 C4.769,9.62233333 4.77766667,9.69766667 4.77766667,9.77766667 C4.77766667,10.2666667 4.37766667,10.6666667 3.889,10.6666667 C3.3986267,10.6652023 3.00146436,10.26804 3,9.77766667 C3,9.289 3.4,8.889 3.889,8.889 C3.969,8.889 4.04433333,8.89766667 4.11566667,8.92 L6.14233333,6.89766667 C6.12045033,6.82265526 6.10988947,6.74479698 6.111,6.66666667 C6.111,6.17766667 6.511,5.77766667 7,5.77766667 C7.489,5.77766667 7.889,6.17766667 7.889,6.66666667 C7.889,6.74666667 7.88,6.82666667 7.85766667,6.89766667 L8.991,8.031 C9.06233333,8.009 9.14233333,8 9.22233333,8 C9.30233333,8 9.38233333,8.009 9.45333333,8.031 L11.031,6.449 C11.009218,6.37545665 10.9987648,6.29902461 11,6.22233333 C11,5.73333333 11.4,5.33333333 11.889,5.33333333 C12.3776667,5.33333333 12.7776667,5.73333333 12.7776667,6.22233333 Z" id="路径" fill="#19BE6B"></path>
                </g>
                <text id="实际路线" font-family="PingFangSC-Regular, PingFang SC" font-size="12" font-weight="normal" fill="#495060">
                    <tspan x="24" y="41">实际路线</tspan>
                </text>
            </g>
        </g>
    </g>
</svg>