<?xml version="1.0" encoding="UTF-8"?>
<svg width="22px" height="28px" viewBox="0 0 22 28" version="1.1" xmlns="http://www.w3.org/2000/svg" xmlns:xlink="http://www.w3.org/1999/xlink">
    <title>编组</title>
    <g id="第四版20200911" stroke="none" stroke-width="1" fill="none" fill-rule="evenodd">
        <g id="门店选择" transform="translate(-261.000000, -456.000000)" fill="#999999" fill-rule="nonzero">
            <g id="编组-5" transform="translate(20.000000, 374.000000)">
                <g id="编组-3" transform="translate(239.000000, 77.000000)">
                    <g id="编组-7" transform="translate(2.000000, 5.000000)">
                        <g id="编组" transform="translate(0.000000, 0.500000)">
                            <path d="M11.0009202,0.500046468 C8.08091365,0.491861569 5.27792164,1.56525171 3.21299143,3.48243733 C1.14806122,5.39962295 -0.00830989364,8.00230573 4.49603289e-05,10.7138201 C4.49603289e-05,16.2862734 8.30233933,26.5 11.0009202,26.5 C13.6995011,26.5 22,16.2862734 22,10.7138201 C22,5.0503615 17.0998531,0.500046468 11.0009202,0.500046468 Z M11.0009202,24.1777382 C9.20011623,24.1777382 2.00032458,14.9861968 2.00032458,10.7138201 C1.99057765,8.49454123 2.93574567,6.36354759 4.62585537,4.79441977 C6.31596507,3.22529195 8.61099867,2.34802496 11.0009202,2.35750068 C13.3905391,2.3484595 15.6851212,3.22591836 17.3748512,4.79499874 C19.0645812,6.36407912 20.0095095,8.4948241 19.9997658,10.7138201 C19.9997658,14.9861968 12.7999742,24.1793633 11.0009202,24.1793633 L11.0009202,24.1777382 Z" id="形状"></path>
                            <path d="M11.0008751,7.5 C8.79364745,7.50576929 7.00577056,9.29325514 7,11.5 C7.00577057,13.7067449 8.79364746,15.4942307 11.0008751,15.5 C13.2074192,15.49327 14.9942339,13.7060642 15,11.5 C14.9932733,9.29461907 13.2067385,7.50847502 11.0008751,7.50174978 L11.0008751,7.5 Z M11.0008751,13.5017498 C9.89657996,13.4988613 9.00236099,12.6040557 9.00043754,11.5 C9.00043754,10.4011374 9.90002187,9.50174979 11.0008751,9.50174979 C12.0999781,9.50174979 12.9995625,10.4011374 12.9995625,11.5 C12.9995625,12.6006125 12.0999781,13.5 11.0008751,13.5 L11.0008751,13.5017498 Z" id="形状"></path>
                        </g>
                    </g>
                </g>
            </g>
        </g>
    </g>
</svg>