<?xml version="1.0" encoding="UTF-8"?>
<svg width="20px" height="20px" viewBox="0 0 20 20" version="1.1" xmlns="http://www.w3.org/2000/svg" xmlns:xlink="http://www.w3.org/1999/xlink">
    <title>定位</title>
    <g id="移动端（开发管家）" stroke="none" stroke-width="1" fill="none" fill-rule="evenodd">
        <g id="开发切图" transform="translate(-153.000000, -168.000000)" fill-rule="nonzero">
            <g id="定位" transform="translate(153.000000, 168.000000)">
                <rect id="矩形" fill="#000000" opacity="0" x="0" y="0" width="20" height="20"></rect>
                <path d="M9.9900892,5.09415261 C10.6772382,5.09415261 11.3214404,5.22299305 11.9226957,5.48067392 C12.5239511,5.73835479 13.0492237,6.09184009 13.4985134,6.54112982 C13.9478031,6.99041954 14.3012884,7.51569209 14.5589693,8.11694745 C14.8166501,8.71820282 14.9454906,9.362405 14.9454906,10.049554 C14.9454906,10.736703 14.8166501,11.3842088 14.5589693,11.9920713 C14.3012884,12.5999339 13.9478031,13.12851 13.4985134,13.5777998 C13.0492237,14.0270895 12.5239511,14.3805748 11.9226957,14.6382557 C11.3214404,14.8959365 10.6772382,15.024777 9.9900892,15.024777 C9.3029402,15.024777 8.65873802,14.8959365 8.05748266,14.6382557 C7.45622729,14.3805748 6.93095475,14.0270895 6.48166502,13.5777998 C6.03237529,13.12851 5.67888999,12.5999339 5.42120912,11.9920713 C5.16352825,11.3842088 5.03468781,10.736703 5.03468781,10.049554 C5.03468781,9.362405 5.16352825,8.71820282 5.42120912,8.11694745 C5.67888999,7.51569209 6.03237529,6.99041954 6.48166502,6.54112982 C6.93095475,6.09184009 7.45622729,5.73835479 8.05748266,5.48067392 C8.65873802,5.22299305 9.3029402,5.09415261 9.9900892,5.09415261 Z M19.900892,8.80079286 L19.900892,11.2983152 L18.7115956,11.2983152 C18.5794516,12.276181 18.2986455,13.1945821 17.8691774,14.0535183 C17.4397093,14.9124546 16.8913115,15.6755864 16.2239841,16.3429138 C15.5566568,17.0102412 14.7968285,17.5619425 13.9444995,17.9980178 C13.0921705,18.4340931 12.177073,18.7182028 11.1992071,18.8503469 L11.1992071,20 L8.72150645,20 L8.72150645,18.8503469 C7.74364057,18.7049884 6.83184672,18.410968 5.98612488,17.9682854 C5.14040305,17.5256029 4.39048564,16.9739016 3.73637266,16.3131814 C3.08225967,15.6524612 2.54046912,14.8959366 2.111001,14.0436075 C1.68153287,13.1912785 1.407334,12.2761811 1.28840437,11.2983152 L0.0198216211,11.2983152 L0.0198216211,8.80079288 L1.30822598,8.80079288 C1.45358441,7.84935581 1.7443013,6.96068717 2.18037662,6.13478695 C2.61645195,5.30888673 3.1615461,4.57218372 3.81565908,3.92467793 C4.46977206,3.27717213 5.21308227,2.74198878 6.04558971,2.31912787 C6.87809714,1.89626696 7.77006939,1.61215728 8.72150646,1.46679883 L8.72150646,0.0991080468 L11.1992072,0.0991080468 L11.1992072,1.44697723 C12.1638586,1.57912126 13.0657417,1.85992734 13.9048563,2.28939547 C14.743971,2.71886359 15.4938884,3.25735054 16.1546086,3.90485632 C16.8153287,4.5523621 17.3637265,5.29236871 17.7998018,6.12487615 C18.2358771,6.95738358 18.526594,7.84935583 18.6719525,8.8007929 L19.900892,8.8007929 L19.900892,8.80079286 Z M9.9900892,16.2735381 C10.8490254,16.2735381 11.6584077,16.1116617 12.4182359,15.7879088 C13.1780641,15.4641559 13.8387843,15.0181698 14.4003964,14.4499504 C14.9620086,13.8817311 15.4079947,13.2177073 15.7383548,12.4578791 C16.0687149,11.6980509 16.2338949,10.8886686 16.2338949,10.0297324 C16.2338949,9.17079616 16.0687149,8.36141393 15.7383548,7.60158572 C15.4079947,6.8417575 14.9620086,6.18103732 14.4003964,5.61942517 C13.8387843,5.05781302 13.1780641,4.6118269 12.4182359,4.28146679 C11.6584077,3.95110669 10.8490255,3.78592666 9.9900892,3.78592666 C9.13115294,3.78592666 8.32177071,3.95110671 7.56194252,4.28146679 C6.80211433,4.61182687 6.13809054,5.057813 5.56987115,5.61942517 C5.00165176,6.18103734 4.55566564,6.84175753 4.23191277,7.60158572 C3.90815991,8.3614139 3.74628344,9.17079613 3.74628344,10.0297324 C3.74628344,10.8886687 3.90815986,11.6980509 4.23191277,12.4578791 C4.55566569,13.2177073 5.00165182,13.881731 5.56987115,14.4499504 C6.13809049,15.0181698 6.80211428,15.4641559 7.56194252,15.7879088 C8.32177076,16.1116617 9.13115299,16.2735381 9.9900892,16.2735381 Z" id="形状" fill="#19BE6B"></path>
            </g>
        </g>
    </g>
</svg>