<?xml version="1.0" encoding="UTF-8"?>
<svg width="34px" height="34px" viewBox="0 0 34 34" version="1.1" xmlns="http://www.w3.org/2000/svg" xmlns:xlink="http://www.w3.org/1999/xlink">
    <title>编组 5</title>
    <g id="第四版20200911" stroke="none" stroke-width="1" fill="none" fill-rule="evenodd">
        <g id="审批详情（拒绝页面）" transform="translate(-80.000000, -1423.000000)">
            <g id="编组-3" transform="translate(0.000000, 974.000000)">
                <g id="编组-2" transform="translate(80.000000, 292.000000)">
                    <g id="编组-5" transform="translate(0.000000, 157.000000)">
                        <circle id="椭圆形备份-4" fill="#FFFFFF" cx="17" cy="17" r="17"></circle>
                        <g id="编组" transform="translate(3.000000, 3.000000)" fill="#FA6400" fill-rule="nonzero">
                            <path d="M14,0 C6.268125,0 0,6.268125 0,14 C0,21.731875 6.268125,28 14,28 C21.731875,28 28,21.731875 28,14 C28,6.268125 21.731875,0 14,0 Z M20.71875,19.1265625 C21.1569951,19.5668224 21.1569951,20.2784901 20.71875,20.71875 C20.2786357,21.1561662 19.5679268,21.1561662 19.1278125,20.71875 L14,15.5909375 L8.875,20.71875 C8.43455921,21.158033 7.72169079,21.158033 7.28125,20.71875 C6.84383377,20.2786357 6.84383377,19.5679268 7.28125,19.1278125 L12.40625,14.0028125 L7.28125,8.875 C6.84196698,8.43455921 6.84196698,7.72169079 7.28125,7.28125 C7.72169079,6.84196698 8.43455921,6.84196698 8.875,7.28125 L14,12.4090625 L19.125,7.2840625 C19.5646652,6.84400127 20.2775344,6.84274326 20.71875,7.28125 C21.158033,7.72169079 21.158033,8.43455921 20.71875,8.875 L15.5909375,14 L20.71875,19.1265625 Z" id="形状"></path>
                        </g>
                    </g>
                </g>
            </g>
        </g>
    </g>
</svg>