<?xml version="1.0" encoding="UTF-8"?>
<svg width="36px" height="36px" viewBox="0 0 36 36" version="1.1" xmlns="http://www.w3.org/2000/svg" xmlns:xlink="http://www.w3.org/1999/xlink">
    <title>分组</title>
    <g id="移动端（开发管家）" stroke="none" stroke-width="1" fill="none" fill-rule="evenodd">
        <g id="开发切图" transform="translate(-12.000000, -160.000000)">
            <g id="分组" transform="translate(12.000000, 160.000000)">
                <rect id="矩形" stroke="#DDDEE1" fill="#FFFFFF" x="0.5" y="0.5" width="35" height="35" rx="2"></rect>
                <path d="M18.0000762,8 C13.5888363,8 10,11.4505859 10,15.6918946 L10,15.9044434 C10,18.0494141 11.2790067,20.5490234 13.801674,23.3336914 C15.6303716,25.3523926 17.4336263,26.7599609 17.5094983,26.8189942 L18.0000762,27.2 L18.4905017,26.8189942 C18.5663737,26.7599609 20.369476,25.3523926 22.198326,23.3336914 C24.7209933,20.5490234 26,18.0494141 26,15.9044434 L26,15.6918946 C26,11.4505859 22.4111637,8 18.0000762,8 Z M24.4,16.1057529 C24.4,19.7885017 19.5716256,24.2466129 18.0000757,25.6 C16.4279201,24.2461664 11.6,19.7883528 11.6,16.1057529 L11.6,15.8898122 C11.6,12.4215159 14.4709785,9.6 18.0000757,9.6 C21.5290215,9.6 24.4,12.4215159 24.4,15.8898122 L24.4,16.1057529 Z M17.142983,16.8584492 L18.7235721,20.8 L22,12 L13.2,15.2707925 L17.142983,16.8584492 Z M18.8,15.2 L18.2048467,16.8 L17.9182495,16.0847695 L17.2,15.7952085 L18.8,15.2 Z" id="navigate" fill="#495060" fill-rule="nonzero"></path>
            </g>
        </g>
    </g>
</svg>