<?xml version="1.0" encoding="UTF-8"?>
<svg width="22px" height="22px" viewBox="0 0 22 22" version="1.1" xmlns="http://www.w3.org/2000/svg" xmlns:xlink="http://www.w3.org/1999/xlink">
    <g id="移动端（开发管家）" stroke="none" stroke-width="1" fill="none" fill-rule="evenodd">
        <g id="开发切图" transform="translate(-163.000000, -104.000000)" fill-rule="nonzero">
            <g id="组织" transform="translate(163.000000, 104.000000)">
                <rect id="矩形" fill="#000000" opacity="0" x="0" y="0" width="22" height="22"></rect>
                <path d="M11,3.55738281 L17.9489063,7.19726562 L11,10.8371484 L4.05109375,7.19726562 L11,3.55738281 M11,2.11578097 C10.8367187,2.11578097 10.6734375,2.16089844 10.5301367,2.25113281 L2.46984375,6.47324219 C1.93359375,6.81119141 1.93359375,7.583125 2.46984375,7.92107422 L10.5303516,12.1431836 C10.6736523,12.233418 10.8369336,12.2785352 11.0002148,12.2785352 C11.1634961,12.2785352 11.3267773,12.233418 11.4700781,12.1431836 L19.5301562,7.92128906 C20.0664062,7.58333984 20.0664062,6.81140625 19.5301562,6.47345703 L11.4698633,2.25134766 C11.3292053,2.16265347 11.1662868,2.11564774 11,2.11578097 Z" id="形状" fill="#495060"></path>
                <path d="M10.9907617,16.4553125 C10.7155469,16.4553125 10.440332,16.3824805 10.1977734,16.2368164 L2.41011719,12.1678906 C2.07367187,11.9921484 1.94326172,11.5766406 2.11921875,11.2401953 C2.29496094,10.90375 2.71046875,10.7733398 3.04691406,10.9492969 L10.8799023,15.0418555 L10.9033203,15.0564648 C10.9570312,15.0901953 11.0268555,15.0897656 11.0812109,15.0553906 L11.1044141,15.0407813 L11.1286914,15.0281055 L18.9520117,10.9200781 C19.2882422,10.7434766 19.70375,10.8730273 19.8803516,11.209043 C20.0569531,11.5452734 19.9274023,11.9607813 19.5913867,12.1373828 L11.7884766,16.2344531 C11.5444141,16.3816211 11.2674805,16.4553125 10.9907617,16.4553125 Z" id="路径" fill="#495060"></path>
                <path d="M10.9907617,20.6316602 C10.7155469,20.6316602 10.440332,20.5588281 10.1977734,20.4131641 L2.41011719,16.3442383 C2.07367187,16.1684961 1.94326172,15.7529883 2.11921875,15.416543 C2.29496094,15.0800977 2.71046875,14.9496875 3.04691406,15.1256445 L10.8799023,19.2182031 L10.9033203,19.2328125 C10.9570312,19.266543 11.0268555,19.2661133 11.0812109,19.2317383 L11.1044141,19.2171289 L11.1286914,19.2044531 L18.9520117,15.0964258 C19.2882422,14.9198242 19.70375,15.049375 19.8803516,15.3853906 C20.0569531,15.7216211 19.9274023,16.1371289 19.5913867,16.3137305 L11.7884766,20.4110156 C11.5444141,20.5581836 11.2674805,20.6316602 10.9907617,20.6316602 Z" id="路径" fill="#495060"></path>
            </g>
        </g>
    </g>
</svg>
