<?xml version="1.0" encoding="UTF-8"?>
<svg width="20px" height="20px" viewBox="0 0 20 20" version="1.1" xmlns="http://www.w3.org/2000/svg" xmlns:xlink="http://www.w3.org/1999/xlink">
    <g id="移动端（开发管家）" stroke="none" stroke-width="1" fill="none" fill-rule="evenodd">
        <g id="开发切图" transform="translate(-10.000000, -105.000000)" fill-rule="nonzero">
            <g id="定位" transform="translate(10.000000, 105.000000)">
                <rect id="矩形" fill="#000000" opacity="0" x="0" y="0" width="20" height="20"></rect>
                <path d="M18.0399,8.29745 C18.0399,3.768975 14.4403,0.098125 9.9999,0.098125 C5.559625,0.098125 1.960075,3.768975 1.960075,8.29745 C1.960075,8.441175 1.97395,8.5801 1.981225,8.7208 C1.974625,8.7903 1.960075,8.857325 1.960075,8.92865 C1.960075,13.97525 9.38155,19.691675 9.38155,19.691675 C9.38155,19.691675 9.999975,20.164625 10.618425,19.691675 C11.23685,19.2182 18.0399,13.97525 18.0399,8.92865 C18.0399,8.857325 18.02535,8.7903 18.01875,8.7208 C18.02595,8.5801 18.0399,8.441175 18.0399,8.29745 L18.0399,8.29745 Z M9.9999,11.451875 C8.291925,11.451875 6.907725,10.0399 6.907725,8.29745 C6.907725,6.556225 8.2919,5.1442 9.9999,5.1442 C11.707975,5.1442 13.09225,6.556225 13.09225,8.29745 C13.09225,10.0399 11.707975,11.451875 9.9999,11.451875 L9.9999,11.451875 Z" id="形状" fill="#19BE6B"></path>
            </g>
        </g>
    </g>
</svg>
