<?xml version="1.0" encoding="UTF-8"?>
<svg width="36px" height="36px" viewBox="0 0 36 36" version="1.1" xmlns="http://www.w3.org/2000/svg" xmlns:xlink="http://www.w3.org/1999/xlink">
    <!-- Generator: Sketch 59 (86127) - https://sketch.com -->
    <g id="移动端（开发管家）" stroke="none" stroke-width="1" fill="none" fill-rule="evenodd">
        <g id="开发1-路线" transform="translate(-13.000000, -750.000000)">
            <g id="分组-2" transform="translate(13.000000, 750.000000)">
                <rect id="矩形-copy" stroke="#DDDEE1" fill="#FFFFFF" x="0.5" y="0.5" width="35" height="35" rx="2"></rect>
                <path d="M26,12.0625 L26,15.8125 L22.25,15.8125 L22.25,14.5625 L23.8132324,14.5625 C22.6135254,12.5203857 20.4328613,11.25 18,11.25 C14.2780762,11.25 11.25,14.2780762 11.25,18 L10,18 C10,15.8631592 10.8321533,13.854126 12.3431397,12.3431397 C13.854126,10.8321533 15.8631592,10 18,10 C19.6434326,10 21.2225342,10.494751 22.5666504,11.4306641 C23.4458008,12.0428467 24.1842041,12.8140869 24.75,13.7026367 L24.75,12.0625 L26,12.0625 Z M18.03125,24.75 C15.5983887,24.75 13.4177246,23.4796143 12.2180176,21.4375 L13.71875,21.4375 L13.71875,20.1875 L10,20.1875 L10,23.9375 L11.25,23.9375 L11.25,22.2480469 C11.8197022,23.1574707 12.5692139,23.9459228 13.4645996,24.5693359 C14.8087158,25.505249 16.3878174,26 18.03125,26 C20.1668701,26 22.1707764,25.1673584 23.6738281,23.6555176 C25.1738281,22.1466064 26,20.1381836 26,18 L24.75,18 C24.75,21.7219238 21.7359619,24.75 18.03125,24.75 Z M18.65625,17 C18.65625,16.6547852 18.3764648,16.375 18.03125,16.375 C17.6860352,16.375 17.40625,16.6547852 17.40625,17 C17.40625,17.3452148 17.6860352,17.625 18.03125,17.625 C18.3764648,17.625 18.65625,17.3452148 18.65625,17 Z M16.1035156,20.4112549 C15.0809326,19.1182861 14.5625,17.9875488 14.5625,17.0501709 L14.5625,16.9641113 C14.5625,15.0695801 16.1046143,13.5281983 18,13.5281983 C19.8953857,13.5281983 21.4375,15.0695801 21.4375,16.9641113 L21.4375,17.0501709 C21.4375,17.9875488 20.9190674,19.1182861 19.8964844,20.4112549 C19.1715088,21.3278809 18.4543457,21.9935303 18.4241943,22.0214844 L18,22.4135742 L17.5758057,22.0214844 C17.5455322,21.9935303 16.8284912,21.3278809 16.1035156,20.4112549 Z M17.0738525,19.6229248 C17.4080811,20.046875 17.7458496,20.4171143 18,20.6813965 C18.2541504,20.4171143 18.5917969,20.046875 18.9261475,19.6229248 C19.7395019,18.5917969 20.1875,17.6779785 20.1875,17.0501709 L20.1875,16.9641113 C20.1875,15.7587891 19.2061768,14.7781983 18,14.7781983 C16.7938232,14.7781983 15.8125,15.7587891 15.8125,16.9641113 L15.8125,17.0501709 C15.8125,17.6779785 16.2604981,18.5917969 17.0738525,19.6229248 L17.0738525,19.6229248 Z" id="update" fill="#2D8CF0" fill-rule="nonzero"></path>
            </g>
        </g>
    </g>
</svg>
