<?xml version="1.0" encoding="UTF-8"?>
<svg width="36px" height="36px" viewBox="0 0 36 36" version="1.1" xmlns="http://www.w3.org/2000/svg" xmlns:xlink="http://www.w3.org/1999/xlink">
    <!-- Generator: Sketch 59 (86127) - https://sketch.com -->
    <desc>Created with Sketch.</desc>
    <g id="移动端（开发管家）" stroke="none" stroke-width="1" fill="none" fill-rule="evenodd">
        <g id="开发1-路线" transform="translate(-329.000000, -355.000000)">
            <g id="编组-4备份" transform="translate(329.000000, 355.000000)">
                <g id="编组-3">
                    <g id="分组-6备份">
                        <rect id="矩形-copy-10" stroke="#DDDEE1" fill="#FFFFFF" x="0.5" y="0.5" width="35" height="35" rx="2"></rect>
                        <g id="路线icon" transform="translate(4.000000, 4.000000)" fill-rule="nonzero">
                            <rect id="矩形" fill="#000000" opacity="0" x="0" y="0" width="28" height="28"></rect>
                            <path d="M22.3609167,10.8890833 C22.3609167,11.74425 21.6609167,12.44425 20.80575,12.44425 C20.66575,12.44425 20.5333333,12.4290833 20.4090833,12.39 L17.64,15.1509167 C17.6790833,15.27575 17.69425,15.41575 17.69425,15.55575 C17.69425,16.4109167 16.99425,17.1109167 16.1390833,17.1109167 C15.2811568,17.1083557 14.586216,16.4136755 14.5833333,15.55575 C14.5833333,15.41575 14.5990833,15.27575 14.6375833,15.1509167 L12.65425,13.1675833 C12.52298,13.2058786 12.386728,13.2243601 12.25,13.2224167 C12.11,13.2224167 11.97,13.2066667 11.84575,13.1675833 L8.30666668,16.71425 C8.34575,16.8390833 8.36091668,16.9709167 8.36091668,17.1109167 C8.36091668,17.9666667 7.66091668,18.6666667 6.80575,18.6666667 C5.94759672,18.664104 5.25256263,17.96907 5.25,17.1109167 C5.25,16.25575 5.95,15.55575 6.80575,15.55575 C6.94575,15.55575 7.07758332,15.5709167 7.20241668,15.61 L10.7490833,12.0709167 C10.7107881,11.9396467 10.6923066,11.8033947 10.69425,11.6666667 C10.69425,10.8109167 11.39425,10.1109167 12.25,10.1109167 C13.10575,10.1109167 13.80575,10.8109167 13.80575,11.6666667 C13.80575,11.8066667 13.79,11.9466667 13.7509167,12.0709167 L15.73425,14.05425 C15.8590833,14.01575 15.9990833,14 16.1390833,14 C16.2790833,14 16.4190833,14.01575 16.5433333,14.05425 L19.30425,11.28575 C19.2661316,11.1570491 19.2478384,11.0232931 19.25,10.8890833 C19.25,10.0333333 19.95,9.33333332 20.80575,9.33333332 C21.6609167,9.33333332 22.3609167,10.0333333 22.3609167,10.8890833 Z" id="路径" fill="#10AC64"></path>
                        </g>
                    </g>
                </g>
            </g>
        </g>
    </g>
</svg>
