<?xml version="1.0" standalone="no"?><!DOCTYPE svg PUBLIC "-//W3C//DTD SVG 1.1//EN" "http://www.w3.org/Graphics/SVG/1.1/DTD/svg11.dtd"><svg class="icon" width="200px" height="200.00px" viewBox="0 0 1024 1024" version="1.1" xmlns="http://www.w3.org/2000/svg"><path d="M14.222222 14.222222m56.888889 0l881.777778 0q56.888889 0 56.888889 56.888889l0 881.777778q0 56.888889-56.888889 56.888889l-881.777778 0q-56.888889 0-56.888889-56.888889l0-881.777778q0-56.888889 56.888889-56.888889Z" fill="#10AC64" /><path d="M749.795556 423.537778c0 24.291556-19.911111 44.202667-44.202667 44.202666-3.982222 0-7.765333-0.426667-11.292445-1.536l-78.762666 78.506667a44.373333 44.373333 0 0 1-42.666667 55.751111 44.373333 44.373333 0 0 1-42.723555-55.751111l-56.433778-56.376889a39.082667 39.082667 0 0 1-11.491556 1.536c-3.982222 0-7.964444-0.426667-11.491555-1.536l-100.693334 100.864c1.137778 3.555556 1.564444 7.310222 1.564445 11.292445 0 24.348444-19.911111 44.259556-44.231111 44.259555A44.373333 44.373333 0 0 1 263.111111 600.462222c0-24.32 19.911111-44.231111 44.259556-44.231111 3.982222 0 7.736889 0.426667 11.264 1.536l100.892444-100.693333a39.082667 39.082667 0 0 1-1.564444-11.463111c0-24.348444 19.911111-44.259556 44.259555-44.259556 24.348444 0 44.259556 19.911111 44.259556 44.259556 0 3.982222-0.455111 7.964444-1.564445 11.491555l56.405334 56.405334c3.555556-1.080889 7.537778-1.536 11.52-1.536s7.964444 0.455111 11.491555 1.536l78.535111-78.734223a37.603556 37.603556 0 0 1-1.536-11.292444c0-24.348444 19.911111-44.259556 44.259556-44.259556 24.32 0 44.231111 19.911111 44.231111 44.259556z" fill="#ffffff" /></svg>