<?xml version="1.0" encoding="UTF-8"?>
<svg width="22px" height="22px" viewBox="0 0 22 22" version="1.1" xmlns="http://www.w3.org/2000/svg" xmlns:xlink="http://www.w3.org/1999/xlink">
    <g id="移动端（开发管家）" stroke="none" stroke-width="1" fill="none" fill-rule="evenodd">
        <g id="开发切图" transform="translate(-190.000000, -104.000000)" fill-rule="nonzero">
            <g id="搜索" transform="translate(190.000000, 104.000000)">
                <rect id="矩形" fill="#000000" opacity="0" x="0" y="0" width="22" height="22"></rect>
                <path d="M19.5433869,16.3914062 L16.3284137,14.1636665 C16.9760375,13.0812652 17.349141,11.8100099 17.349141,10.4500106 C17.349141,6.50116718 14.2041467,3.3 10.3245705,3.3 C6.44499425,3.3 3.3,6.50118838 3.3,10.4500318 C3.3,14.3988328 6.44501508,17.6 10.3245913,17.6 C12.4462958,17.6 14.3483131,16.6425613 15.6363316,15.1290147 L18.8830548,17.3788291 C18.9801718,17.4463809 19.0950725,17.4824946 19.2127001,17.482438 C19.4003247,17.482438 19.5846577,17.391001 19.6982408,17.2212741 C19.8805738,16.9485744 19.8112406,16.5771219 19.5433869,16.3914062 L19.5433869,16.3914062 Z M12.6017538,15.938059 C11.881151,16.2482707 11.1150065,16.4055713 10.3245913,16.4055713 C9.53417609,16.4055713 8.76801083,16.2482707 8.04740798,15.938059 C7.35080509,15.6381742 6.72495207,15.2085981 6.18720305,14.6612267 C5.64947487,14.1138977 5.22745481,13.4768705 4.93276785,12.7678091 C4.62797674,12.0343404 4.47345619,11.2544321 4.47345619,10.4500106 C4.47345619,9.64546185 4.62797674,8.86565964 4.93276785,8.13219092 C5.22745481,7.42312945 5.64947487,6.78608105 6.18720305,6.2387733 C6.7249729,5.69140193 7.35082592,5.26184699 8.04740798,4.9619198 C8.76801083,4.65168686 9.53417609,4.49436504 10.3245913,4.49436504 C11.1150065,4.49436504 11.881151,4.65168686 12.6017538,4.9619198 C13.2983567,5.26184699 13.9242306,5.69138073 14.4619796,6.2387733 C14.9996869,6.78608105 15.4217487,7.42312945 15.716394,8.13219092 C16.0211851,8.86565964 16.1757056,9.64544065 16.1757056,10.4500106 C16.1757056,11.2544321 16.0211851,12.0343404 15.716394,12.7678091 C15.5654618,13.1312116 15.379283,13.478379 15.1606241,13.8041525 C15.0973244,13.8468685 15.0428029,13.9017225 15.0001036,13.9656518 C14.9653174,14.0176351 14.9388238,14.0748892 14.9216037,14.1352939 C14.7785939,14.3195764 14.6251168,14.4951873 14.4619587,14.6612267 C13.9242097,15.2085981 13.2983359,15.6381954 12.6017538,15.938059 L12.6017538,15.938059 Z" id="形状" fill="#495060"></path>
            </g>
        </g>
    </g>
</svg>
