<?xml version="1.0" encoding="UTF-8"?>
<svg width="30px" height="41px" viewBox="0 0 30 41" version="1.1" xmlns="http://www.w3.org/2000/svg" xmlns:xlink="http://www.w3.org/1999/xlink">
    <title>编组 5</title>
    <g id="第四版20200911" stroke="none" stroke-width="1" fill="none" fill-rule="evenodd">
        <g id="任务管理备份-4" transform="translate(-644.000000, -468.000000)" fill-rule="nonzero">
            <g id="编组备份" transform="translate(644.000000, 460.000000)">
                <g id="编组-6" transform="translate(0.000000, 8.000000)">
                    <g id="编组-5" transform="translate(6.000000, 0.000000)">
                        <path d="M17.5207207,24.8157895 C18.0391673,24.8162699 18.5196265,25.1370147 18.7873443,25.6613618 C19.0550622,26.1857088 19.0710261,26.837249 18.8294297,27.3790023 L18.7332011,27.5660854 L11.2125652,40.2545136 C10.9542651,40.690122 10.5421388,40.9632122 10.092735,40.9965547 C9.64333112,41.0298972 9.205507,40.8198671 8.90307853,40.4258607 L8.7876042,40.2545136 L1.26696824,27.5660854 C0.968621257,27.0618919 0.916552498,26.4096331 1.12985373,25.8484693 C1.34315497,25.2873055 1.79044473,24.8997966 2.30771766,24.8280286 L2.48092916,24.8157895 L17.5192402,24.8157895 L17.5207207,24.8157895 Z" id="路径" fill="#B8B8B8"></path>
                        <path d="M10.2826099,0.243269859 C10.4971242,0.387722188 10.6766579,0.589217483 10.8053659,0.82997249 L18.7823477,15.7506928 C19.0651796,16.2790376 19.0728659,16.9373039 18.8024676,17.4737856 C18.5320692,18.0102673 18.025408,18.3421053 17.4762198,18.3421053 L1.52378023,18.3421053 C0.974592016,18.3421053 0.467930827,18.0102673 0.197532447,17.4737856 C-0.0728659324,16.9373039 -0.0651796134,16.2790376 0.21765233,15.7506928 L8.19463414,0.82997249 C8.62764565,0.0209336641 9.56268888,-0.241613534 10.284134,0.243269859 L10.2826099,0.243269859 Z" id="路径" fill="#0A9B58"></path>
                    </g>
                </g>
            </g>
        </g>
    </g>
</svg>