<?xml version="1.0" encoding="UTF-8"?>
<svg width="500px" height="330px" viewBox="0 0 500 330" version="1.1" xmlns="http://www.w3.org/2000/svg" xmlns:xlink="http://www.w3.org/1999/xlink">
    <title>编组</title>
    <defs>
        <linearGradient x1="50.4102564%" y1="0.173469388%" x2="50.4102564%" y2="50.1734694%" id="linearGradient-1">
            <stop stop-color="#A9A9A9" stop-opacity="0.15" offset="0%"></stop>
            <stop stop-color="#A9A9A9" stop-opacity="0" offset="100%"></stop>
        </linearGradient>
        <linearGradient x1="50%" y1="67.6525421%" x2="50%" y2="99.4263549%" id="linearGradient-2">
            <stop stop-color="#0A9B58" offset="0%"></stop>
            <stop stop-color="#8DB71C" offset="100%"></stop>
        </linearGradient>
        <linearGradient x1="50%" y1="0%" x2="50%" y2="98.0520723%" id="linearGradient-3">
            <stop stop-color="#0A9B58" offset="0%"></stop>
            <stop stop-color="#658216" offset="100%"></stop>
        </linearGradient>
        <radialGradient cx="23.6333237%" cy="36.1905333%" fx="23.6333237%" fy="36.1905333%" r="94%" id="radialGradient-4">
            <stop stop-color="#FFFFFF" offset="0%"></stop>
            <stop stop-color="#C2C2C2" offset="100%"></stop>
        </radialGradient>
        <radialGradient cx="76.7719%" cy="35.812475%" fx="76.7719%" fy="35.812475%" r="94%" id="radialGradient-5">
            <stop stop-color="#FFFFFF" offset="0%"></stop>
            <stop stop-color="#D8D8D8" offset="100%"></stop>
        </radialGradient>
        <radialGradient cx="50%" cy="68.8745039%" fx="50%" fy="68.8745039%" r="233.095117%" gradientTransform="translate(0.500000,0.688745),scale(0.209790,1.000000),translate(-0.500000,-0.688745)" id="radialGradient-6">
            <stop stop-color="#808184" offset="0%"></stop>
            <stop stop-color="#FFFFFF" stop-opacity="0" offset="100%"></stop>
        </radialGradient>
        <linearGradient x1="0%" y1="50.0050166%" x2="100%" y2="50.0050166%" id="linearGradient-7">
            <stop stop-color="#F5F5F5" offset="0%"></stop>
            <stop stop-color="#DEDEDE" offset="100%"></stop>
        </linearGradient>
        <linearGradient x1="50%" y1="100%" x2="50%" y2="0%" id="linearGradient-8">
            <stop stop-color="#DEDEDE" offset="0%"></stop>
            <stop stop-color="#FDFDFD" offset="100%"></stop>
        </linearGradient>
        <linearGradient x1="24.9965569%" y1="46.4831586%" x2="75.0034431%" y2="53.1837495%" id="linearGradient-9">
            <stop stop-color="#EEEEEE" offset="0%"></stop>
            <stop stop-color="#D8D8D8" offset="100%"></stop>
        </linearGradient>
        <linearGradient x1="0%" y1="50%" x2="100%" y2="50%" id="linearGradient-10">
            <stop stop-color="#DEDEDE" offset="0%"></stop>
            <stop stop-color="#FDFDFD" offset="100%"></stop>
        </linearGradient>
        <linearGradient x1="0%" y1="50%" x2="100%" y2="50%" id="linearGradient-11">
            <stop stop-color="#DEDEDE" offset="0%"></stop>
            <stop stop-color="#FDFDFD" offset="100%"></stop>
        </linearGradient>
        <linearGradient x1="100%" y1="50.0099384%" x2="0%" y2="50.0099384%" id="linearGradient-12">
            <stop stop-color="#7F9AC6" offset="0%"></stop>
            <stop stop-color="#506C97" offset="100%"></stop>
        </linearGradient>
        <linearGradient x1="99.9178482%" y1="49.9731038%" x2="-0.0608606473%" y2="49.9731038%" id="linearGradient-13">
            <stop stop-color="#FFF7ED" offset="0%"></stop>
            <stop stop-color="#FFEBD6" offset="100%"></stop>
        </linearGradient>
        <linearGradient x1="99.9091916%" y1="50.0478109%" x2="0.277654744%" y2="50.0478109%" id="linearGradient-14">
            <stop stop-color="#1F1E4A" offset="0%"></stop>
            <stop stop-color="#424677" offset="100%"></stop>
        </linearGradient>
        <linearGradient x1="41141.4773%" y1="50.0130897%" x2="41241.1097%" y2="50.0130897%" id="linearGradient-15">
            <stop stop-color="#1F1E4A" offset="0%"></stop>
            <stop stop-color="#424677" offset="100%"></stop>
        </linearGradient>
    </defs>
    <g id="第四版20200911" stroke="none" stroke-width="1" fill="none" fill-rule="evenodd">
        <g id="任务提交成功" transform="translate(-125.000000, -413.000000)">
            <g id="编组-2" transform="translate(125.000000, 413.000000)">
                <g id="编组" transform="translate(1.000000, 1.000000)">
                    <ellipse id="背景" fill="url(#linearGradient-1)" fill-rule="nonzero" cx="248.5" cy="321.5" rx="248.5" ry="124.5"></ellipse>
                    <line x1="214.327384" y1="115.697248" x2="216.672616" y2="115.302752" id="路径" stroke="#E8E8E8" stroke-linecap="round" stroke-linejoin="round"></line>
                    <path d="M193,124 C212.15513,120.045625 261.519005,106.891953 262.307349,76.4813237 C262.659589,62.5334669 242.984488,71.6500375 240.753636,76.4813237 C235.553907,87.7322638 245.064378,106.263224 284.934555,99.8766609 C335.053227,91.8520931 358.971981,67.6460265 366,58" id="路径" stroke="#E8E8E8" stroke-linecap="round" stroke-linejoin="round" stroke-dasharray="3.05"></path>
                    <path d="M344.094332,72.6112385 C344.997563,71.5592509 345.124334,71.1700153 344.585564,71.5066515" id="路径" stroke="#E8E8E8" stroke-linecap="round" stroke-linejoin="round"></path>
                    <polygon id="路径" fill="url(#linearGradient-2)" fill-rule="nonzero" points="347 66.4749586 374.430985 85 416 0"></polygon>
                    <polygon id="路径" fill="url(#linearGradient-3)" fill-rule="nonzero" points="347.209387 67 351 69.3234041 339 81"></polygon>
                    <polygon id="路径" fill="#0A9B58" fill-rule="nonzero" points="415 0 336 63.0644515 338.19508 81 347.089726 65.0598681"></polygon>
                    <polygon id="路径" fill="#0A9B58" fill-rule="nonzero" points="336.774185 64 311 49.0242826 416 0"></polygon>
                    <circle id="椭圆形" fill="url(#radialGradient-4)" fill-rule="nonzero" opacity="0.84" cx="63.5" cy="208.5" r="14.5"></circle>
                    <circle id="椭圆形" fill="url(#radialGradient-5)" fill-rule="nonzero" opacity="0.66" cx="439" cy="140" r="11"></circle>
                    <ellipse id="椭圆形" fill="url(#radialGradient-6)" fill-rule="nonzero" opacity="0.26" style="mix-blend-mode: multiply;" cx="243" cy="242" rx="143" ry="30"></ellipse>
                    <polygon id="路径" fill="url(#linearGradient-7)" fill-rule="nonzero" points="148 117 148 214.061001 258 264 258 134.477175"></polygon>
                    <polygon id="路径" fill="url(#linearGradient-8)" fill-rule="nonzero" points="363 117 260 134.477175 260 264 363 217.438447"></polygon>
                    <polygon id="路径" fill="url(#linearGradient-9)" fill-rule="nonzero" points="259.448147 106 150 117.894475 259.448147 135 363 117.894475"></polygon>
                    <polygon id="路径" fill="url(#linearGradient-10)" fill-rule="nonzero" points="149.570598 118 138 154.800683 239.099747 186 259 135.195903"></polygon>
                    <polygon id="路径" fill="url(#linearGradient-11)" fill-rule="nonzero" points="258 135.11878 276.795715 190 377 151.847512 362.65122 118"></polygon>
                    <polygon id="路径" fill="#0091FF" fill-rule="nonzero" points="162.5 66 168 75.1758792 163.121859 77 157 68.4459799"></polygon>
                    <path d="M211,123.622811 C211,123.622811 200.640779,135.94053 199.996076,141.131568 C199.849554,142.275356 203.541949,149.108758 205.857022,157.349898 C207.802646,164.822719 209.314368,172.401997 210.384601,180.049695 L205.197664,182 C205.197664,182 197.050953,164.916497 194.17909,159.300204 C191.644232,154.31446 185.768634,143.081874 185.768634,138.536049 C185.768634,134.650102 190.296214,124.268024 190.296214,124.268024 C190.296214,124.268024 180.581699,130.133605 179.922344,134.004888 C179.175072,138.521385 188.347449,163.831365 188.347449,163.831365 L183.819873,167.072098 C183.819873,167.072098 164.273623,142.465988 165.020893,132.699796 C165.665597,124.268024 183.819873,110 183.819873,110 L199.366025,113.255397 L211,123.622811 Z" id="路径" fill="url(#linearGradient-12)" fill-rule="nonzero"></path>
                    <path d="M204,71.9860141 C204,71.9860141 201.412222,67.0489512 201.382645,65.1888112 C201.382645,63.7902098 203.038825,61.0769232 203.334571,58.3776225 C203.515475,56.2967511 203.295011,54.2021079 202.68393,52.1958042 L191.563864,46 L188.946509,49.1048953 C188.946509,49.1048953 187.216392,49.6083918 186.34394,52.8111888 C185.885353,55.0561653 185.885353,57.3634154 186.34394,59.6083916 C186.757987,61.1608392 188.133206,64.4195806 189.61194,65.2027974 C191.090672,65.986014 194.787502,64.3216784 195.526867,65.2027974 C195.940913,65.7062939 195.526867,72 195.526867,72 L204,71.9860141 Z" id="路径" fill="url(#linearGradient-13)" fill-rule="nonzero"></path>
                    <path d="M204.093172,60.4997414 C202.740412,63.1546277 201.087043,64.2902439 199.087966,63.9372821 C200.243713,62.5566385 201.274992,61.0722644 202.169248,59.5022408 C202.311707,58.9395601 202.183342,58.3412459 201.823543,57.8908935 C201.395626,57.5344467 200.871121,57.3202397 200.320479,57.2770468 C200.079988,53.8855445 199.358518,52.2895436 198.231219,51.1385813 C196.817248,49.6183721 194.962686,48.6016953 192.940432,48.2381562 C190.587626,48.2782822 188.27267,48.8495168 186.16161,49.9108882 C185.807793,48.4328517 186.040085,46.8719542 186.807927,45.5679238 C187.715044,43.7537702 189.431603,42.5051915 191.407306,42.22246 C194.098483,41.768755 196.858134,42.0114679 199.433671,42.9283836 C202.364314,43.7036496 204.718446,45.9285147 205.701449,48.8520029 C206.411434,52.81003 205.847204,56.8963706 204.093172,60.4997414 Z" id="头发" fill="#3D4757" fill-rule="nonzero"></path>
                    <path d="M211.703388,178.004803 C212.601702,178.110914 213.647019,179.884485 213.875679,180.687898 C214.431004,182.658532 212.977365,186.887817 212.438374,188.737181 C211.899382,190.586545 211.376727,193.73956 209.547426,195.437338 C208.093784,196.786464 203.014209,199.045114 203.014209,197.453448 C202.936663,192.084149 203.176576,186.714944 203.732865,181.37004 C203.912526,180.324088 206.999472,180.460517 208.061118,180.020914 C209.122768,179.581311 210.658071,177.898692 211.703388,178.004803 Z" id="路径" fill="url(#linearGradient-14)" fill-rule="nonzero"></path>
                    <path d="M190.719701,162.006293 C191.618023,162.097306 192.647016,163.872071 192.875678,164.691193 C193.431007,166.663154 191.977356,170.895286 191.43836,172.730726 C190.899364,174.566167 190.393037,177.736474 188.547388,179.450563 C187.110066,180.785429 182.014114,183.045599 182.014114,181.452862 C181.936862,176.079951 182.176777,170.707147 182.732776,165.358626 C182.928773,164.31197 185.999412,164.463659 187.0774,164.008591 C188.155392,163.553523 189.674375,161.884941 190.719701,162.006293 Z" id="路径" fill="url(#linearGradient-15)" fill-rule="nonzero"></path>
                    <path d="M224.563768,128.052692 C224.563768,128.052692 230.900559,129.877256 229.891023,130.864316 C229.362956,131.372801 224.843333,130.310964 223.181477,129.9969 C221.83025,129.757613 218.382292,130.699806 217.69891,129.9969 C217.015531,129.293994 221.13134,127.349787 221.13134,127.349787 L219.391828,107.21976 C218.956952,102.32933 217,87.6729948 217,87.6729948 L223.212542,87 C224.349969,93.564816 225.040001,100.194274 225.278209,106.845873" id="路径" fill="#FDDCBD" fill-rule="nonzero"></path>
                    <path d="M182.04418,84.7334996 C182.04418,84.7334996 180.703739,92.0289955 179.348068,92.0289955 C177.992394,92.0289955 169.553713,82.3767243 168.578847,78.7589989 C168.137111,77.1227664 170.985547,75.156285 169.919287,74.1054935 C169.249067,73.4449959 166.492025,76.1019973 165.197282,76.1019973 C163.902538,76.1019973 159.820289,73.4449959 159.104372,74.1054935 C158.388455,74.765991 161.556768,77.5280716 162.485937,78.7589989 C166.492025,84.0880133 174.671758,100 179.24144,100 C182.607775,100 188,88.7114963 188,88.7114963 L182.04418,84.7334996 Z" id="路径" fill="#FDDCBD" fill-rule="nonzero"></path>
                    <path d="M204.591549,67 C209.29664,68.3918992 213.564396,70.951126 216.989756,74.4347826 C220.750863,78.3539045 223.499031,83.1152824 225,88.3130435 L223.174137,88.6774937 L214.987195,90.2956522 C214.987195,90.2956522 216.989756,106.156522 214.987195,114.086957 C214.012901,117.523206 212.670228,120.846449 210.982074,124 C206.809506,120.052318 202.089287,116.714326 196.964147,114.086957 C192.629128,111.794217 187.85035,110.442454 182.946224,110.121739 C182.946224,110.121739 188.364915,96.7974424 186.362357,90.8496162 C185.350691,87.4764009 182.500152,84.9590539 179,84.347826 C180.377988,80.728565 182.218852,77.299089 184.477593,74.1432224 C187.083867,70.280051 192.944301,67.6997443 192.944301,67.6997443 C194.446633,69.4978771 196.683296,70.5355322 199.040334,70.5278772 C201.406139,70.4549636 203.539509,69.0991765 204.591549,67 Z" id="路径" fill="#6DD458" fill-rule="nonzero"></path>
                </g>
            </g>
        </g>
    </g>
</svg>