<?xml version="1.0" encoding="UTF-8"?>
<svg width="38px" height="38px" viewBox="0 0 38 38" version="1.1" xmlns="http://www.w3.org/2000/svg" xmlns:xlink="http://www.w3.org/1999/xlink">
    <title>编组 3</title>
    <g id="第四版20200911" stroke="none" stroke-width="1" fill="none" fill-rule="evenodd">
        <g id="任务管理备份-6" transform="translate(-30.000000, -542.000000)">
            <g id="编组-9" transform="translate(30.000000, 542.000000)">
                <circle id="椭圆形" fill="#0A9B58" cx="19" cy="19" r="19"></circle>
                <g id="编组" transform="translate(10.000000, 8.000000)" fill="#FFFFFF" fill-rule="nonzero">
                    <path d="M15.420012,20.9999314 L2.58012127,20.9999314 C1.89429922,21.0048769 1.23506845,20.742334 0.750105291,20.2710453 C0.265142136,19.7997566 -0.00501838219,19.159114 7.06143977e-05,18.4926299 L7.06143977e-05,3.50755242 C-0.00501838219,2.84106837 0.265142136,2.2004258 0.750105291,1.72913707 C1.23506845,1.25784833 1.89429922,0.995305477 2.58012127,1.00032156 L3.24311565,1.00032156 C3.54134687,1.00032156 3.78311105,1.23526876 3.78311105,1.52509081 L3.78311105,3.06091549 C3.77922441,3.4486651 3.93600994,3.82163344 4.21815903,4.09582683 C4.50030813,4.37002022 4.88409813,4.52238489 5.28309827,4.51860784 L12.7476347,4.51860784 C13.1466349,4.52238489 13.5304249,4.37002022 13.812574,4.09582683 C14.0947231,3.82163344 14.2515086,3.4486651 14.247622,3.06091549 L14.247622,1.52509081 C14.247622,1.23526876 14.4893861,1.00032156 14.7876174,1.00032156 L15.6000105,1.00032156 C16.2670878,0.989201705 16.9047003,1.26696862 17.3399956,1.75832158 C17.7672199,2.2464743 18.0012426,2.86672149 17.999995,3.50755242 L17.999995,18.4926299 C17.9895349,19.8731049 16.8405413,20.9897005 15.420012,20.9999314 L15.420012,20.9999314 Z M4.8001024,13.5364759 C4.4497442,13.5375249 4.11690651,13.685502 3.88700783,13.9424307 C3.65710914,14.1993594 3.55253121,14.5402265 3.6001126,14.8775529 C3.72525765,15.4564235 4.25143344,15.8703649 4.86010188,15.8687882 L9.54006204,15.8687882 C10.1487305,15.8703649 10.6749063,15.4564235 10.8000513,14.8775529 C10.8572822,14.5385301 10.7561698,14.1923499 10.5241957,13.9331017 C10.2922216,13.6738536 9.95348835,13.5284739 9.60006152,13.5364759 L4.8001024,13.5364759 Z M4.8001024,8.87186033 C4.44974419,8.87290934 4.1169065,9.02088639 3.88700782,9.27781511 C3.65710913,9.53474383 3.5525312,9.87561094 3.6001126,10.2129373 C3.72525766,10.7918079 4.25143345,11.2057493 4.86010188,11.2041726 L13.1400314,11.2041726 C13.7486998,11.2057493 14.2748756,10.7918079 14.4000207,10.2129373 C14.4572516,9.87391454 14.3561391,9.52773432 14.124165,9.26848617 C13.8921909,9.00923803 13.5534577,8.86385833 13.2000309,8.87186033 L4.8001024,8.87186033 Z" id="形状"></path>
                    <path d="M7.45837335,7.05729764e-05 L11.5416267,7.05729764e-05 C11.9295392,-0.0038159198 12.3026642,0.152963569 12.5769728,0.43510179 C12.8512813,0.717240011 13.00371,1.10101522 13,1.5 C13.00371,1.89898476 12.8512813,2.28275997 12.5769728,2.5648982 C12.3026642,2.84703643 11.9295392,3.00381592 11.5416267,2.99992943 L7.45837335,2.99992943 C7.07046084,3.00381592 6.69733581,2.84703643 6.42302723,2.5648982 C6.14871865,2.28275997 5.99628997,1.89898476 6,1.5 C5.99628998,1.10101522 6.14871866,0.717240011 6.42302724,0.43510179 C6.69733582,0.152963569 7.07046084,-0.0038159198 7.45837335,7.05729764e-05 L7.45837335,7.05729764e-05 Z" id="路径"></path>
                </g>
            </g>
        </g>
    </g>
</svg>