<?xml version="1.0" encoding="UTF-8"?>
<svg width="500px" height="330px" viewBox="0 0 500 330" version="1.1" xmlns="http://www.w3.org/2000/svg" xmlns:xlink="http://www.w3.org/1999/xlink">
    <title>编组 2</title>
    <defs>
        <linearGradient x1="50.4102564%" y1="0.173469388%" x2="50.4102564%" y2="50.1734694%" id="linearGradient-1">
            <stop stop-color="#A9A9A9" stop-opacity="0.15" offset="0%"></stop>
            <stop stop-color="#A9A9A9" stop-opacity="0" offset="100%"></stop>
        </linearGradient>
        <radialGradient cx="55.2174961%" cy="50%" fx="55.2174961%" fy="50%" r="480.456154%" gradientTransform="translate(0.552175,0.500000),scale(0.101781,1.000000),translate(-0.552175,-0.500000)" id="radialGradient-2">
            <stop stop-color="#808184" stop-opacity="0.495164991" offset="0%"></stop>
            <stop stop-color="#FFFFFF" stop-opacity="0" offset="100%"></stop>
        </radialGradient>
        <radialGradient cx="30.6472626%" cy="35.8974359%" fx="30.6472626%" fy="35.8974359%" r="94.5945946%" gradientTransform="translate(0.306473,0.358974),scale(1.000000,0.988318),translate(-0.306473,-0.358974)" id="radialGradient-3">
            <stop stop-color="#FFFFFF" offset="0%"></stop>
            <stop stop-color="#C2C2C2" offset="100%"></stop>
        </radialGradient>
        <radialGradient cx="76.78125%" cy="35.6875%" fx="76.78125%" fy="35.6875%" r="94%" gradientTransform="translate(0.767813,0.356875),scale(1.000000,0.988318),translate(-0.767813,-0.356875)" id="radialGradient-4">
            <stop stop-color="#FFFFFF" offset="0%"></stop>
            <stop stop-color="#D8D8D8" offset="100%"></stop>
        </radialGradient>
        <linearGradient x1="50%" y1="-8.04061325e-15%" x2="50%" y2="100%" id="linearGradient-5">
            <stop stop-color="#EEEEEE" offset="0%"></stop>
            <stop stop-color="#D8D8D8" stop-opacity="0" offset="100%"></stop>
        </linearGradient>
        <linearGradient x1="50%" y1="-8.04061325e-15%" x2="50%" y2="100%" id="linearGradient-6">
            <stop stop-color="#DADADA" offset="0%"></stop>
            <stop stop-color="#F4F4F4" stop-opacity="0" offset="100%"></stop>
        </linearGradient>
        <linearGradient x1="0%" y1="50%" x2="100.020186%" y2="50%" id="linearGradient-7">
            <stop stop-color="#EEEEEE" offset="0%"></stop>
            <stop stop-color="#DDDDDD" offset="3%"></stop>
            <stop stop-color="#D8D8D8" offset="100%"></stop>
        </linearGradient>
        <linearGradient x1="49.985702%" y1="0%" x2="49.985702%" y2="66.3923182%" id="linearGradient-8">
            <stop stop-color="#DEDEDE" offset="0%"></stop>
            <stop stop-color="#FDFDFD" offset="100%"></stop>
        </linearGradient>
        <linearGradient x1="63.5115814%" y1="50.0685871%" x2="-2.88818988%" y2="50.0685871%" id="linearGradient-9">
            <stop stop-color="#FFFFFF" stop-opacity="0.677420236" offset="0%"></stop>
            <stop stop-color="#FFFFFF" offset="100%"></stop>
        </linearGradient>
        <linearGradient x1="63.5115814%" y1="50.0685871%" x2="-2.88818988%" y2="50.0685871%" id="linearGradient-10">
            <stop stop-color="#FFFFFF" stop-opacity="0.677420236" offset="0%"></stop>
            <stop stop-color="#FFFFFF" offset="100%"></stop>
        </linearGradient>
        <linearGradient x1="63.5115814%" y1="50.0685871%" x2="-2.88818988%" y2="50.0685871%" id="linearGradient-11">
            <stop stop-color="#FFFFFF" stop-opacity="0.677420236" offset="0%"></stop>
            <stop stop-color="#FFFFFF" offset="100%"></stop>
        </linearGradient>
        <linearGradient x1="0%" y1="50%" x2="100%" y2="50%" id="linearGradient-12">
            <stop stop-color="#FFF7ED" offset="0%"></stop>
            <stop stop-color="#FFEBD6" offset="100%"></stop>
        </linearGradient>
        <linearGradient x1="100%" y1="50.0099384%" x2="0%" y2="50.0099384%" id="linearGradient-13">
            <stop stop-color="#3D4757" offset="0%"></stop>
            <stop stop-color="#3D4757" offset="100%"></stop>
        </linearGradient>
        <linearGradient x1="100%" y1="50.0099384%" x2="0%" y2="50.0099384%" id="linearGradient-14">
            <stop stop-color="#4C79C1" offset="0%"></stop>
            <stop stop-color="#829CC6" offset="100%"></stop>
        </linearGradient>
        <linearGradient x1="100%" y1="50.0099384%" x2="0%" y2="50.0099384%" id="linearGradient-15">
            <stop stop-color="#4C79C1" offset="0%"></stop>
            <stop stop-color="#829CC6" offset="100%"></stop>
        </linearGradient>
        <linearGradient x1="0%" y1="50.0143408%" x2="100%" y2="50.0143408%" id="linearGradient-16">
            <stop stop-color="#1F1E4A" offset="0%"></stop>
            <stop stop-color="#424677" offset="100%"></stop>
        </linearGradient>
        <linearGradient x1="3.68435149e-13%" y1="50.1775892%" x2="99.9459587%" y2="50.1775892%" id="linearGradient-17">
            <stop stop-color="#1F1E4A" offset="0%"></stop>
            <stop stop-color="#424677" offset="100%"></stop>
        </linearGradient>
        <linearGradient x1="50%" y1="100%" x2="50%" y2="50%" id="linearGradient-18">
            <stop stop-color="#FDA457" offset="0%"></stop>
            <stop stop-color="#F96252" offset="100%"></stop>
        </linearGradient>
    </defs>
    <g id="第四版20200911" stroke="none" stroke-width="1" fill="none" fill-rule="evenodd">
        <g id="创建任务（创建成功）" transform="translate(-125.000000, -424.000000)" fill-rule="nonzero">
            <g id="编组-3" transform="translate(125.000000, 424.000000)">
                <g id="编组-2" transform="translate(4.000000, 0.000000)">
                    <g id="编组">
                        <ellipse id="背景" fill="url(#linearGradient-1)" cx="246.5" cy="290.800959" rx="246.5" ry="125.199041"></ellipse>
                        <g transform="translate(36.409182, 92.776978)">
                            <ellipse id="椭圆形" fill="url(#radialGradient-2)" opacity="0.36" style="mix-blend-mode: multiply;" cx="202.004522" cy="156.015374" rx="202.004522" ry="20.5601656"></ellipse>
                            <ellipse id="椭圆形" fill="url(#radialGradient-3)" opacity="0.400000006" cx="396.837286" cy="94.3348773" rx="26.2964467" ry="26.6072731"></ellipse>
                            <ellipse id="椭圆形" fill="url(#radialGradient-4)" opacity="0.66" cx="76.4987539" cy="14.513058" rx="14.3435164" ry="14.513058"></ellipse>
                            <polygon id="路径" fill="#FFFFFF" points="263.072043 55.6333892 263.789219 55.6333892 263.789219 55.6333892 263.789219 55.6333892 263.789219 55.6333892 263.789219 55.6333892 263.789219 55.6333892 263.789219 55.6333892 263.789219 55.6333892 263.789219 55.6333892 263.789219 55.6333892 263.789219 55.6333892 263.789219 56.0497473 263.789219 56.3273194 263.789219 57.9530993 263.789219 58.0720587 263.789219 58.7263359 263.789219 58.9047752 263.789219 59.2814802 263.789219 59.2814802 263.789219 59.2814802 263.789219 59.2814802 263.789219 59.2814802 263.789219 59.2814802 265.247476 59.2814802 265.247476 59.2814802 265.247476 59.2814802 265.247476 59.2814802 265.247476 59.2814802 265.247476 59.2814802 265.247476 59.2814802 265.247476 59.2814802 265.247476 59.2814802 265.247476 59.2814802 265.247476 60.4710752 265.247476 60.4710752 265.247476 60.4710752 265.247476 60.4710752 265.247476 60.4710752 265.247476 60.4710752 265.247476 60.4710752 265.247476 60.4710752 265.247476 60.4710752 265.247476 60.4710752 265.080135 60.4710752 265.080135 60.4710752 264.9367 60.4710752 264.9367 60.4710752 264.9367 60.4710752 264.817171 60.4710752 264.817171 60.4710752 264.817171 60.4710752 264.817171 60.4710752 264.817171 60.4710752 264.817171 60.4710752 264.817171 60.4710752 264.697641 60.4710752 263.215478 60.4710752 263.215478 60.4710752 263.215478 60.4710752 263.215478 60.4710752 263.215478 60.4710752 263.215478 60.4710752 263.215478 60.4710752 263.215478 60.4710752 263.215478 60.4710752 263.215478 60.4710752 263.215478 60.3322892 263.215478 60.3322892 263.215478 60.2331561 263.215478 60.1141967 263.215478 60.0150638 263.215478 59.8961044 263.215478 59.7771449 263.215478 59.6383587 263.215478 59.6383587 263.215478 59.6383587 263.215478 59.6383587 263.215478 59.6383587 263.215478 59.6383587 263.215478 59.6383587 263.215478 59.6383587 263.215478 58.1513651 263.215478 58.0522322 263.215478 57.9332728 263.215478 57.7548335 263.215478 57.3583019 263.215478 57.3583019 263.215478 57.3583019 263.215478 57.3583019 263.215478 56.922117 263.215478 56.6643714 263.215478 55.8118284 263.215478 55.8118284 263.215478 55.8118284 263.215478 55.8118284 263.215478 55.8118284 263.215478 55.8118284 263.215478 55.8118284 263.215478 55.8118284 263.215478 55.8118284 263.215478 55.8118284 263.215478 55.8118284 263.932654 55.8118284"></polygon>
                        </g>
                        <g id="编组-5" transform="translate(167.285429, 0.000000)">
                            <g id="编组-4">
                                <rect id="矩形" fill="url(#linearGradient-5)" x="0" y="12.1137376" width="172.464545" height="242.274752" rx="6.14"></rect>
                                <rect id="矩形" fill="url(#linearGradient-6)" x="9.58136359" y="12.1137376" width="172.464545" height="242.274752" rx="5.19"></rect>
                                <rect id="矩形" fill="url(#linearGradient-7)" x="52.6974997" y="4.84549503" width="88.6276132" height="16.9592326" rx="3"></rect>
                                <rect id="矩形" fill="url(#linearGradient-8)" x="64.6742042" y="0" width="62.2788633" height="12.1137376" rx="2.5"></rect>
                            </g>
                            <rect id="矩形" fill="url(#linearGradient-9)" x="38.3254544" y="89.6416581" width="62.2788633" height="12.1137376" rx="2.5"></rect>
                            <rect id="矩形" fill="url(#linearGradient-10)" x="38.3254544" y="128.405618" width="114.976363" height="12.1137376" rx="2.5"></rect>
                            <rect id="矩形" fill="url(#linearGradient-10)" x="38.3254544" y="164.746831" width="114.976363" height="12.1137376" rx="2.5"></rect>
                        </g>
                        <g id="编组-8" transform="translate(269.417166, 31.884892)">
                            <ellipse id="椭圆形" fill="url(#linearGradient-11)" cx="33.1487026" cy="33.9472422" rx="32.5" ry="33"></ellipse>
                            <g id="编组" transform="translate(6.582834, 16.115108)" fill="#6DD400">
                                <path d="M19.0513304,41 C24.1005868,33.9914362 29.3248009,27.7701241 33.2069982,23.3906715 C35.4989064,20.8053562 37.6514789,18.4538841 39.7117728,16.3384987 C41.5764039,14.4239109 43.4251298,12.6683812 45.2022821,11.0166157 C48.2315724,8.20058893 51.7729834,5.08116902 54,3.74518287 L51.1558317,0 C47.0322793,2.56250584 43.0629796,5.29954103 39.9982084,7.40277388 C38.2122564,8.62859247 36.5549581,9.8067824 34.9930913,10.9289771 C33.4459063,12.0407487 31.8484645,13.261753 30.1641555,14.5425385 C27.2399433,16.7660349 23.4829645,19.7549551 19.8449456,22.8435729 L10.7161822,14.2797162 L0,22.6683892 L19.0513304,41 Z" id="路径"></path>
                            </g>
                        </g>
                    </g>
                    <g id="编组-24" transform="translate(293.373701, 184.401297)">
                        <path d="M46.8376504,24.5987026 C47.0765756,25.8315916 46.8376504,31.354258 46.8376504,34.7320358 C46.8376504,38.5151471 37.4080952,39.2582582 34.0950076,41.4875915 C30.2881423,44.0378138 26.911343,50.9453691 24.5380262,54.9987025 C22.4036347,58.6635916 18.8994064,69.3711471 19.7595355,73.5764804 C20.4763085,77.1231469 29.3165169,85.3987025 29.3165169,85.3987025 L54.8018025,100.598703 L78.694256,85.3987025 C78.694256,85.3987025 87.2477547,79.0147024 88.2512374,75.2653692 C89.6847859,69.9284802 86.658408,58.3764803 85.065576,54.9987025 C81.8799173,48.243147 73.9157653,38.1098138 73.9157653,38.1098138 C73.9157653,38.1098138 59.5802932,38.6164804 59.5802932,34.7320358 L59.5802932,24.5987026" id="路径" fill="#FDDCBD"></path>
                        <path d="M43.6262986,16.721344 C43.6262986,16.721344 44.1075834,25.2119103 46.6262986,27.8270045 C47.7172083,28.9817214 51.0861935,32.5987026 52.6262986,32.5987026 C57.1343203,32.5987026 58.5621274,29.7119103 60.1343211,27.8270045 C61.9952165,25.6465152 63.0591276,22.8341756 63.1343218,19.8968159 C63.1343218,17.094929 64.6262986,7.19492899 64.6262986,7.19492899 L49.6262986,5.59870257 L43.6262986,8.82511776 L43.6262986,16.721344 Z" id="路径" fill="url(#linearGradient-12)"></path>
                        <path d="M65.4483765,6.88442231 C65.685606,8.44344339 65.685606,10.0312818 65.4483765,11.5903029 C64.9936474,15.0524866 63.9380305,19.4558463 63.9380305,19.4558463 C63.9380305,19.4558463 62.5900851,10.9012274 60.9010935,10.0272783 C58.6436927,8.86761485 59.3745055,11.5903029 56.3375685,11.5903029 C52.761163,11.3777385 49.2083055,10.8548948 45.7164117,10.0272783 C44.5146305,10.0272783 44.1898236,11.70795 44.1898236,13.1701343 L44.1898236,22.5987026 C44.1898236,22.5987026 39.6262986,19.6071069 39.6262986,11.5903029 C39.6262986,5.30459093 42.6632355,3.74156604 44.1898236,2.16173466 C45.7164117,0.581903285 49.5004034,0.598702566 53.3006316,0.598702566 C54.3075308,0.598702566 59.6181106,0.716357094 62.4114424,2.16173466 C64.0738813,3.16646709 65.1947246,4.90947201 65.4483765,6.88442231 L65.4483765,6.88442231 Z" id="路径" fill="url(#linearGradient-13)"></path>
                        <path d="M46.9921527,34.5987026 C46.9921527,34.5987026 36.8141047,36.7208078 34.3092256,37.9671238 C28.69703,40.7629132 21.6262986,54.8092289 21.6262986,54.8092289 L34.3092256,59.8618604 C33.0539439,63.156334 31.9949439,66.5314168 31.1384932,69.9671237 C30.5360558,73.9587026 31.2177617,86.1187026 31.2177617,86.1187026 L54.9189824,98.5987026 L75.5287365,91.8618603 L80.2848338,80.0723867 C79.9890583,76.1111983 79.4595624,72.1736346 78.6994689,68.2829132 C77.778236,65.9680757 76.7191819,63.7179086 75.5287365,61.5460709 C75.5287365,61.5460709 78.9531271,58.969229 80.2848338,58.1776499 C81.8702013,57.234492 86.6262986,54.8092289 86.6262986,54.8092289 C86.6262986,54.8092289 78.4141028,40.7965975 73.9433716,37.9671238 C70.518981,35.7944921 59.6750797,34.5987026 59.6750797,34.5987026 C59.6750797,34.5987026 61.2604446,44.7039659 53.3336148,44.7039659 C45.4067878,44.7039659 46.9921527,34.5987026 46.9921527,34.5987026 Z" id="路径" fill="#6DD458"></path>
                        <path d="M28.6376173,70.6820359 L28.6376173,96.5153693 C28.5841516,97.0128151 28.721532,97.5121406 29.0194152,97.9030456 C29.3172984,98.2939507 29.7511694,98.5442677 30.2251858,98.5987026 L81.0274089,98.5987026 C81.501428,98.5442677 81.9352963,98.2939507 82.2331795,97.9030456 C82.5310627,97.5121406 82.6684458,97.0128151 82.6149801,96.5153693 L82.6149801,70.6820359 C82.6684458,70.1845897 82.5310627,69.6852646 82.2331795,69.2943595 C81.9352963,68.9034542 81.501428,68.6531371 81.0274089,68.5987026 L30.2251858,68.5987026 C29.7511694,68.6531371 29.3172984,68.9034542 29.0194152,69.2943595 C28.721532,69.6852646 28.5841516,70.1845897 28.6376173,70.6820359 L28.6376173,70.6820359 Z" id="路径" fill="#F8F8F8"></path>
                        <path d="M30.7980314,115.598703 C30.7980314,115.598703 85.985607,107.431809 102.656852,97.6982054 C104.972304,96.348168 111.615251,92.1813856 109.044305,85.7812078 C105.850578,77.8143202 97.8662644,81.264416 94.6725382,81.7977641 C77.2827055,84.6645103 28.6262986,105.131745 28.6262986,105.131745 L30.7980314,115.598703 Z" id="路径" fill="url(#linearGradient-14)"></path>
                        <path d="M0.62629862,87.2485887 C0.62629862,92.9946135 10.3062987,98.9446394 15.0262985,100.423646 C30.2742974,105.183666 79.0262996,113.598703 79.0262996,113.598703 L80.6262986,106.06767 C80.6262986,106.06767 33.3782991,81.4855638 16.6262986,79.7175562 C12.3382968,79.2755543 0.62629862,79.7175562 0.62629862,87.2485887 Z" id="路径" fill="url(#linearGradient-15)"></path>
                        <path d="M5.62629862,111.417817 C5.62629862,108.207166 8.73004813,107.272196 10.2087985,106.60184 C14.6612986,104.626055 29.5462987,106.178458 29.5462987,106.178458 L31.6262986,114.610827 C31.6262986,114.610827 15.376299,117.645068 10.2087985,116.216153 C8.64879789,115.79277 5.62629862,114.610827 5.62629862,111.417817 Z" id="路径" fill="url(#linearGradient-16)"></path>
                        <path d="M80.1008583,106.631049 C80.1008583,106.631049 94.9274728,104.308269 99.189112,106.631049 C102.138229,108.214762 103.612788,109.710492 103.612788,111.417383 C103.769764,113.549946 102.544913,115.51592 100.663669,116.150927 C95.4135899,118.121771 78.6262986,112.948306 78.6262986,112.948306 L80.1008583,106.631049 Z" id="路径" fill="url(#linearGradient-17)"></path>
                        <circle id="椭圆形" fill="url(#linearGradient-18)" opacity="0.49" cx="54.1262986" cy="82.0987026" r="2.5"></circle>
                    </g>
                </g>
            </g>
        </g>
    </g>
</svg>