<?xml version="1.0" encoding="UTF-8"?>
<svg width="30px" height="41px" viewBox="0 0 30 41" version="1.1" xmlns="http://www.w3.org/2000/svg" xmlns:xlink="http://www.w3.org/1999/xlink">
    <title>编组 5</title>
    <g id="第四版20200911" stroke="none" stroke-width="1" fill="none" fill-rule="evenodd">
        <g id="任务管理备份-6" transform="translate(-644.000000, -468.000000)" fill-rule="nonzero">
            <g id="编组备份" transform="translate(644.000000, 460.000000)">
                <g id="编组-6" transform="translate(0.000000, 8.000000)">
                    <g id="编组-5" transform="translate(6.000000, 0.000000)">
                        <path d="M16.5207207,-7.27595761e-12 C17.0391673,0.000480384313 17.5196265,0.321225195 17.7873443,0.845572284 C18.0550622,1.36991937 18.0710261,2.02145953 17.8294297,2.56321286 L17.7332011,2.75029593 L10.2125652,15.4387241 C9.95426511,15.8743325 9.54213884,16.1474227 9.09273498,16.1807652 C8.64333112,16.2141077 8.205507,16.0040777 7.90307853,15.6100712 L7.7876042,15.4387241 L0.266968235,2.75029593 C-0.031378743,2.24610241 -0.0834475021,1.59384362 0.129853733,1.03267981 C0.343154969,0.471516006 0.790444733,0.0840071572 1.30771766,0.0122390791 L1.48092916,-7.27595761e-12 L16.5192402,-7.27595761e-12 L16.5207207,-7.27595761e-12 Z" id="路径" fill="#B8B8B8" transform="translate(9.000000, 8.092105) rotate(-180.000000) translate(-9.000000, -8.092105) "></path>
                        <path d="M10.2826099,22.9011646 C10.4971242,23.0456169 10.6766579,23.2471122 10.8053659,23.4878672 L18.7823477,38.4085875 C19.0651796,38.9369323 19.0728659,39.5951986 18.8024676,40.1316803 C18.5320692,40.6681621 18.025408,41 17.4762198,41 L1.52378023,41 C0.974592016,41 0.467930827,40.6681621 0.197532447,40.1316803 C-0.0728659324,39.5951986 -0.0651796134,38.9369323 0.21765233,38.4085875 L8.19463414,23.4878672 C8.62764565,22.6788284 9.56268888,22.4162812 10.284134,22.9011646 L10.2826099,22.9011646 Z" id="路径" fill="#0A9B58" transform="translate(9.500000, 31.828947) rotate(-180.000000) translate(-9.500000, -31.828947) "></path>
                    </g>
                </g>
            </g>
        </g>
    </g>
</svg>